HIERARCHY
ROOT joint_Root
{
	OFFSET 0.0 0.0 0.0
	CHANNELS 6 Xposition Yposition Zposition Zrotation Xrotation Yrotation 
	JOINT Hips
	{
		OFFSET 4.5925 91.4895 -427.239
		CHANNELS 6 Xposition Yposition Zposition Zrotation Xrotation Yrotation 
		JOINT Spine
		{
			OFFSET 15.7357 0.0 0.0
			CHANNELS 6 Xposition Yposition Zposition Zrotation Xrotation Yrotation 
			JOINT Chest
			{
				OFFSET 8.98455 -0.406207 0.0
				CHANNELS 6 Xposition Yposition Zposition Zrotation Xrotation Yrotation 
				JOINT Neck
				{
					OFFSET 16.3773 0.0 0.0
					CHANNELS 6 Xposition Yposition Zposition Zrotation Xrotation Yrotation 
					JOINT Head
					{
						OFFSET 6.45672 0.0 0.0
						CHANNELS 6 Xposition Yposition Zposition Zrotation Xrotation Yrotation 
						End Site
						{
							OFFSET 0.0 0.0 0.0
						}
					}
				}
				JOINT Shoulder_L
				{
					OFFSET 12.9942 -0.242716 4.98039
					CHANNELS 6 Xposition Yposition Zposition Zrotation Xrotation Yrotation 
					JOINT UpperArm_L
					{
						OFFSET 5.34809 0.0 0.0
						CHANNELS 6 Xposition Yposition Zposition Zrotation Xrotation Yrotation 
						JOINT LowerArm_L
						{
							OFFSET 24.3286 1.87007e-05 0.0
							CHANNELS 6 Xposition Yposition Zposition Zrotation Xrotation Yrotation 
							JOINT Hand_L
							{
								OFFSET 22.2916 0.0 0.0
								CHANNELS 6 Xposition Yposition Zposition Zrotation Xrotation Yrotation 
								End Site
								{
									OFFSET 0.0 0.0 0.0
								}
							}
						}
					}
				}
				JOINT Shoulder_R
				{
					OFFSET 12.9945 -0.242716 -4.98039
					CHANNELS 6 Xposition Yposition Zposition Zrotation Xrotation Yrotation 
					JOINT UpperArm_R
					{
						OFFSET -5.34813 0.0 0.0
						CHANNELS 6 Xposition Yposition Zposition Zrotation Xrotation Yrotation 
						JOINT LowerArm_R
						{
							OFFSET -24.3289 0.000322201 0.0
							CHANNELS 6 Xposition Yposition Zposition Zrotation Xrotation Yrotation 
							JOINT Hand_R
							{
								OFFSET -22.2915 -0.000108084 0.0
								CHANNELS 6 Xposition Yposition Zposition Zrotation Xrotation Yrotation 
								End Site
								{
									OFFSET 0.0 0.0 0.0
								}
							}
						}
					}
				}
			}
		}
		JOINT UpperLeg_L
		{
			OFFSET -2.19248 -6.46944 0.0
			CHANNELS 6 Xposition Yposition Zposition Zrotation Xrotation Yrotation 
			JOINT LowerLeg_L
			{
				OFFSET 39.0811 0.0 -1.23785e-05
				CHANNELS 6 Xposition Yposition Zposition Zrotation Xrotation Yrotation 
				JOINT Foot_L
				{
					OFFSET 40.9854 0.0 -1.26872e-05
					CHANNELS 6 Xposition Yposition Zposition Zrotation Xrotation Yrotation 
					JOINT Toes_L
					{
						OFFSET 11.7543 0.0 0.0
						CHANNELS 6 Xposition Yposition Zposition Zrotation Xrotation Yrotation 
						End Site
						{
							OFFSET 0.0 0.0 0.0
						}
					}
				}
			}
		}
		JOINT UpperLeg_R
		{
			OFFSET -2.19251 6.46944 0.0
			CHANNELS 6 Xposition Yposition Zposition Zrotation Xrotation Yrotation 
			JOINT LowerLeg_R
			{
				OFFSET -39.0811 -0.00228153 -0.0401928
				CHANNELS 6 Xposition Yposition Zposition Zrotation Xrotation Yrotation 
				JOINT Foot_R
				{
					OFFSET -40.9854 0.0 0.0
					CHANNELS 6 Xposition Yposition Zposition Zrotation Xrotation Yrotation 
					JOINT Toes_R
					{
						OFFSET -11.7543 0.0 0.0
						CHANNELS 6 Xposition Yposition Zposition Zrotation Xrotation Yrotation 
						End Site
						{
							OFFSET 0.0 0.0 0.0
						}
					}
				}
			}
		}
	}
}
MOTION
Frames:	8
Frame Time:	0.0333333
0.000000 0.000000 0.000000 0.000000 0.000000 -0.000000 -0.660611 82.274600 1.443760 89.250200 -2.376250 12.396600 15.735700 0.000005 -0.000001 85.665700 81.614900 -85.663600 8.984550 -0.406207 -0.000000 8.957750 -1.260790 0.103076 16.377300 -0.000001 -0.000001 -3.660400 -4.064400 1.669330 6.456720 -0.000001 -0.000000 -3.407270 -2.922060 0.890290 12.994200 -0.242716 4.980390 -90.850500 3.156450 -74.911400 5.348090 -0.000007 -0.000001 -59.662000 36.261400 -19.894800 24.328600 0.000019 0.000005 10.694600 23.263400 -25.554600 22.291600 -0.000001 0.000005 7.252260 5.339100 -1.062360 12.994500 -0.242716 -4.980390 89.090300 6.002760 -81.365500 -5.348130 -0.000001 -0.000004 -55.286500 45.187600 -15.862400 -24.328900 0.000322 -0.000009 5.818880 12.261300 -25.634600 -22.291500 -0.000108 -0.000004 -3.978470 5.229370 1.998820 -2.192480 -6.469440 -0.000000 -173.604000 -9.700690 -10.984000 39.081100 -0.000007 -0.000012 -0.666582 0.368084 61.094200 40.985400 -0.000006 -0.000013 0.373677 3.889510 -87.450000 11.754300 -0.000000 0.000003 -0.000409 -0.003370 -16.701700 -2.192510 6.469440 -0.000001 175.671000 11.654300 169.346000 -39.081100 -0.002282 -0.040193 0.082507 -0.043315 61.360300 -40.985400 0.000008 0.000006 7.598710 4.773590 -87.845300 -11.754300 -0.000006 -0.000006 -0.541752 -0.665260 -17.225300
0.000000 0.000000 0.000000 0.000000 0.000000 -0.000000 -0.906487 83.879300 2.123130 89.298600 -2.250030 12.812200 15.735700 0.000005 -0.000001 85.865400 82.267700 -85.975900 8.984550 -0.406207 -0.000000 7.658430 -1.110450 -0.146354 16.377300 -0.000001 -0.000001 -1.438380 -3.958380 1.785650 6.456720 -0.000001 -0.000000 -2.219470 -2.965640 0.757806 12.994200 -0.242716 4.980390 -90.573600 2.043050 -74.310700 5.348090 -0.000007 -0.000001 -52.292100 30.774500 -27.943600 24.328600 0.000019 0.000005 11.377900 22.452100 -27.787600 22.291600 -0.000001 0.000005 7.778770 5.339370 -1.069570 12.994500 -0.242716 -4.980390 89.244400 4.532770 -80.523000 -5.348130 -0.000001 -0.000004 -45.986100 45.710700 -25.680400 -24.328900 0.000322 -0.000009 5.333830 9.901460 -28.522300 -22.291500 -0.000108 -0.000004 -12.194700 5.191080 2.957640 -2.192480 -6.469440 -0.000000 -173.438000 -9.411040 -7.623250 39.081100 -0.000007 -0.000012 -0.596407 0.400569 56.114600 40.985400 -0.000006 -0.000013 0.019417 4.018000 -85.399100 11.754300 -0.000000 0.000003 -0.000364 -0.003058 -16.690700 -2.192510 6.469440 -0.000001 175.486000 12.018800 172.669000 -39.081100 -0.002282 -0.040193 0.071471 -0.045091 56.549300 -40.985400 0.000008 0.000006 7.563180 5.319490 -85.753000 -11.754300 -0.000006 -0.000006 -0.560413 -0.687722 -17.413900
0.000000 0.000000 0.000000 0.000000 0.000000 -0.000000 -1.149980 86.036000 2.580600 89.400300 -2.417260 12.027400 15.735700 0.000005 -0.000001 85.422800 83.562800 -85.664000 8.984550 -0.406207 -0.000000 5.065910 -1.019620 -0.436666 16.377300 -0.000001 -0.000001 2.067430 -3.615450 1.886760 6.456720 -0.000001 -0.000000 0.036345 -2.727920 0.790071 12.994200 -0.242716 4.980390 -90.137200 0.464844 -73.559000 5.348090 -0.000007 -0.000001 -47.138200 19.302300 -36.185100 24.328600 0.000019 0.000005 11.101800 19.334700 -30.657300 22.291600 -0.000001 0.000005 9.627640 5.307410 -0.146333 12.994500 -0.242716 -4.980390 89.459100 2.858600 -79.273200 -5.348130 -0.000001 -0.000004 -36.353900 38.143300 -36.464400 -24.328900 0.000322 -0.000009 3.819500 6.044190 -32.384000 -22.291500 -0.000108 -0.000004 -10.988800 5.199310 2.756970 -2.192480 -6.469440 -0.000000 -173.527000 -9.520820 -4.591770 39.081100 -0.000007 -0.000012 -0.499251 0.434783 48.949600 40.985400 -0.000006 -0.000013 -0.404717 4.088270 -82.020600 11.754300 -0.000000 0.000003 -0.000276 -0.002429 -16.668300 -2.192510 6.469440 -0.000001 175.569000 12.379800 175.378000 -39.081100 -0.002282 -0.040193 0.058293 -0.046471 49.827800 -40.985400 0.000008 0.000006 7.597190 6.190440 -82.208600 -11.754300 -0.000006 -0.000006 -0.722303 -0.882519 -17.711800
0.000000 0.000000 0.000000 0.000000 0.000000 -0.000000 -1.331520 88.002700 2.746070 89.414200 -2.850270 10.258800 15.735700 0.000005 -0.000001 84.460800 85.036000 -84.743200 8.984550 -0.406207 -0.000000 2.113700 -0.943727 -0.546874 16.377300 -0.000001 -0.000001 4.992900 -3.403310 2.025950 6.456720 -0.000001 -0.000000 2.747630 -2.487780 0.519805 12.994200 -0.242716 4.980390 -89.464600 -1.791180 -73.352500 5.348090 -0.000007 -0.000001 -43.362800 6.011250 -45.062300 24.328600 0.000019 0.000005 11.785300 17.520700 -34.724700 22.291600 -0.000001 0.000005 12.118900 5.269840 0.892240 12.994500 -0.242716 -4.980390 89.827700 0.859943 -78.664400 -5.348130 -0.000001 -0.000004 -30.012900 23.913400 -45.204500 -24.328900 0.000322 -0.000009 6.532500 8.396220 -38.079100 -22.291500 -0.000108 -0.000004 -2.130130 5.181980 3.094700 -2.192480 -6.469440 -0.000000 -173.652000 -10.285200 -2.654360 39.081100 -0.000007 -0.000012 -0.381307 0.428819 41.644500 40.985400 -0.000006 -0.000013 -0.712678 4.280700 -78.357800 11.754300 -0.000000 0.000003 -0.000185 -0.001738 -16.643200 -2.192510 6.469440 -0.000001 175.854000 13.065700 176.864000 -39.081100 -0.002282 -0.040193 0.046242 -0.045940 43.087900 -40.985400 0.000008 0.000006 7.691760 7.612510 -78.373100 -11.754300 -0.000006 -0.000006 -0.774617 -0.940819 -18.192700
0.000000 0.000000 0.000000 0.000000 0.000000 -0.000000 -1.381550 89.376500 2.696890 89.166000 -3.390670 7.985280 15.735700 0.000005 -0.000001 83.395600 86.210600 -83.543800 8.984550 -0.406207 -0.000000 -0.238529 -0.861116 -0.297999 16.377300 -0.000001 -0.000001 5.706570 -3.221280 2.091130 6.456720 -0.000001 -0.000000 4.522700 -2.357410 0.098258 12.994200 -0.242716 4.980390 -88.725400 -4.238190 -73.245500 5.348090 -0.000007 -0.000001 -39.865800 -8.183680 -53.448700 24.328600 0.000019 0.000005 14.199600 16.815600 -41.169800 22.291600 -0.000001 0.000005 16.413900 5.255860 1.271410 12.994500 -0.242716 -4.980390 90.246500 -1.197430 -78.366900 -5.348130 -0.000001 -0.000004 -26.727500 5.391290 -52.268600 -24.328900 0.000322 -0.000009 12.394500 12.375100 -45.707600 -22.291500 -0.000108 -0.000004 10.217700 5.120720 4.642220 -2.192480 -6.469440 -0.000000 -173.812000 -10.820000 -2.159260 39.081100 -0.000007 -0.000012 -0.311512 0.429203 35.972400 40.985400 -0.000006 -0.000013 -0.998603 4.096060 -75.423300 11.754300 -0.000000 0.000003 -0.000141 -0.001378 -16.630000 -2.192510 6.469440 -0.000001 176.209000 14.658200 177.095000 -39.081100 -0.002282 -0.040193 0.035286 -0.041414 37.694100 -40.985400 0.000008 0.000006 7.891890 10.015500 -75.364200 -11.754300 -0.000006 -0.000006 -0.836848 -1.011790 -18.457600
0.000000 0.000000 0.000000 0.000000 0.000000 -0.000000 -1.372240 90.204700 2.594850 88.897200 -3.771780 5.657940 15.735700 0.000005 -0.000001 84.100700 86.918600 -84.106800 8.984550 -0.406207 -0.000000 -1.635990 -0.632760 -0.021244 16.377300 -0.000001 -0.000001 4.370380 -3.268250 2.103100 6.456720 -0.000001 -0.000000 4.362700 -2.329910 0.082123 12.994200 -0.242716 4.980390 -88.015300 -6.473430 -72.914900 5.348090 -0.000007 -0.000001 -39.465900 -24.247700 -61.874700 24.328600 0.000019 0.000005 18.151800 17.098600 -48.110300 22.291600 -0.000001 0.000005 21.240500 5.216020 2.286030 12.994500 -0.242716 -4.980390 90.744400 -3.518690 -78.049200 -5.348130 -0.000001 -0.000004 -31.277700 -16.343500 -58.832400 -24.328900 0.000322 -0.000009 11.939200 9.267960 -52.740000 -22.291500 -0.000108 -0.000004 19.953900 5.245790 1.649690 -2.192480 -6.469440 -0.000000 -174.239000 -10.397300 -2.764720 39.081100 -0.000007 -0.000012 -0.268949 0.426456 32.238400 40.985400 -0.000006 -0.000013 -1.368740 3.141030 -73.466700 11.754300 -0.000000 0.000003 -0.000108 -0.001098 -16.619600 -2.192510 6.469440 -0.000001 176.520000 16.854800 176.731000 -39.081100 -0.002282 -0.040193 0.025330 -0.033117 33.639200 -40.985400 0.000008 0.000006 8.174810 12.811300 -73.781300 -11.754300 -0.000006 -0.000006 -0.607659 -0.741979 -18.323200
0.000000 0.000000 0.000000 0.000000 0.000000 -0.000000 -1.468470 90.703800 2.431730 88.630200 -3.719210 3.646680 15.735700 0.000005 -0.000001 87.020700 87.288100 -86.949500 8.984550 -0.406207 -0.000000 -2.349320 -0.288102 0.136419 16.377300 -0.000001 -0.000001 2.286620 -3.440050 2.173540 6.456720 -0.000001 -0.000000 3.311730 -2.790660 0.316671 12.994200 -0.242716 4.980390 -87.276800 -8.502490 -72.168100 5.348090 -0.000007 -0.000001 -43.089000 -38.959300 -72.173100 24.328600 0.000019 0.000005 19.730700 16.258200 -52.027300 22.291600 -0.000001 0.000005 29.269400 5.169420 3.487780 12.994500 -0.242716 -4.980390 91.375100 -5.862360 -76.778900 -5.348130 -0.000001 -0.000004 -43.944300 -34.744000 -71.971400 -24.328900 0.000322 -0.000009 5.725000 3.779570 -56.689000 -22.291500 -0.000108 -0.000004 27.095800 5.383230 -2.360170 -2.192480 -6.469440 -0.000000 -174.411000 -9.922190 -3.835430 39.081100 -0.000007 -0.000012 -0.243227 0.422708 29.916600 40.985400 -0.000006 -0.000013 -1.626330 2.641250 -72.128800 11.754300 -0.000000 0.000003 -0.000119 -0.001190 -16.623000 -2.192510 6.469440 -0.000001 177.249000 18.343000 176.089000 -39.081100 -0.002282 -0.040193 0.020357 -0.028716 30.708900 -40.985400 0.000008 0.000006 8.365060 14.203400 -72.852100 -11.754300 -0.000006 -0.000006 -0.396272 -0.492981 -18.019200
0.000000 0.000000 0.000000 0.000000 0.000000 -0.000000 -1.584900 91.057600 2.416490 88.642700 -3.280270 1.799830 15.735700 0.000005 -0.000001 89.035800 87.840400 -88.975600 8.984550 -0.406207 -0.000000 -3.447380 -0.078536 0.118037 16.377300 -0.000001 -0.000001 1.366850 -3.399100 2.081840 6.456720 -0.000001 -0.000000 2.891680 -3.836060 0.724928 12.994200 -0.242716 4.980390 -86.376300 -10.721000 -71.201700 5.348090 -0.000007 -0.000001 -55.131600 -48.311800 -86.231600 24.328600 0.000019 0.000005 19.102700 14.381100 -54.353300 22.291600 -0.000001 0.000005 33.244900 5.209390 2.482470 12.994500 -0.242716 -4.980390 92.200500 -8.129630 -74.802300 -5.348130 -0.000001 -0.000004 -59.393400 -44.664100 -89.739300 -24.328900 0.000322 -0.000009 7.180250 4.670110 -57.137200 -22.291500 -0.000108 -0.000004 29.460300 5.408040 -3.201530 -2.192480 -6.469440 -0.000000 -174.707000 -9.686850 -4.871310 39.081100 -0.000007 -0.000012 -0.217584 0.409560 27.980300 40.985400 -0.000006 -0.000013 -1.717860 2.717580 -71.053500 11.754300 -0.000000 0.000003 -0.000123 -0.001230 -16.624500 -2.192510 6.469440 -0.000001 177.913000 19.035300 175.254000 -39.081100 -0.002282 -0.040193 0.019314 -0.029397 28.571700 -40.985400 0.000008 0.000006 8.429790 14.459700 -72.126200 -11.754300 -0.000006 -0.000006 -0.285446 -0.361431 -17.854000
